<svg xmlns="http://www.w3.org/2000/svg" viewBox="0 0 512 512">
  <g fill="none" stroke="#74b46d" stroke-linecap="round" stroke-linejoin="round">
    <path stroke-width="18" d="M256 42c-82 0-132 48-132 111 0 54 39 80 92 99 48 17 76 33 76 67 0 29-25 48-62 48-42 0-70-24-70-60"/>
    <path stroke-width="12" d="M256 42c82 0 132 48 132 111 0 42-24 67-61 86M194 105c18-22 42-33 62-33s44 11 62 33l-26 42h-72z"/>
    <path stroke-width="10" d="M256 147v303m-55-28 55 38 55-38M222 116h1m66 0h1"/>
    <path stroke-width="6" d="m256 224-38 36 38 36 38-36zm0 88-38 36 38 36 38-36z" opacity=".7"/>
  </g>
</svg>
